<?xml version="1.0" encoding="UTF-8"?>
<svg id="Capa_1" data-name="Capa 1" xmlns="http://www.w3.org/2000/svg" xmlns:xlink="http://www.w3.org/1999/xlink" viewBox="0 0 208 319">
  <defs>
    <style>
      .cls-1, .cls-2, .cls-3, .cls-4, .cls-5 {
        stroke: #010101;
      }

      .cls-1, .cls-2, .cls-3, .cls-5 {
        fill: none;
      }

      .cls-2 {
        stroke-width: .9px;
      }

      .cls-2, .cls-5 {
        stroke-linecap: round;
      }

      .cls-6 {
        fill: #ffcc07;
      }

      .cls-7 {
        isolation: isolate;
      }

      .cls-8 {
        fill: #abc838;
      }

      .cls-9 {
        fill: #ffdd56;
      }

      .cls-10 {
        fill: #e73736;
      }

      .cls-11 {
        fill: #fdea52;
      }

      .cls-3 {
        stroke-width: 1.08px;
      }

      .cls-3, .cls-5 {
        stroke-miterlimit: 5.12;
      }

      .cls-4 {
        fill: url(#Degradado_sin_nombre_16);
        stroke-linecap: square;
      }

      .cls-12 {
        fill: #fea;
      }

      .cls-13 {
        fill: #ffe783;
      }

      .cls-14 {
        fill: #d8dc48;
      }

      .cls-5 {
        stroke-width: 1.01px;
      }

      .cls-15 {
        fill: #cfd600;
      }

      .cls-16 {
        fill: #e52521;
      }

      .cls-17 {
        fill: #010101;
      }

      .cls-18 {
        fill: #c93838;
      }
    </style>
    <linearGradient id="Degradado_sin_nombre_16" data-name="Degradado sin nombre 16" x1="-86.93" y1="1043.66" x2="-606.8" y2="1043.66" gradientTransform="translate(222 1203.16) scale(1 -1)" gradientUnits="userSpaceOnUse">
      <stop offset="0" stop-color="#fff"/>
      <stop offset="1" stop-color="#cdcccc"/>
    </linearGradient>
  </defs>
  <g id="_2_club" data-name="2_club">
    <g id="g32608">
      <rect id="use7490" class="cls-4" x=".5" y=".5" width="207" height="318" rx="15" ry="15"/>
      <path id="use7646" class="cls-1" d="m65.86,15h25.43m25.43,0h25.43m25.43,0h25.43v289h-25.43m-25.43,0h-25.43m-25.43,0h-25.43m-25.43,0H15V15h25.43"/>
    </g>
  </g>
  <g id="g3158-0" class="cls-7">
    <g id="use7997-6">
      <path id="path25181-6" class="cls-17" d="m19,23c.08-.36.16-.68.24-.95.08-.27.24-.65.5-1.16.27-.52.56-.95.88-1.28.33-.35.78-.65,1.35-.92.58-.27,1.24-.4,1.96-.4,1.23,0,2.26.4,3.1,1.21.85.8,1.28,1.8,1.28,2.98,0,1.78-1.01,3.73-3.03,5.85l-3.98,4.17h5.66c.54,0,.93-.09,1.18-.26.27-.19.62-.62,1.07-1.3l.31.12-1.3,3.24h-9.23v-.28l4.21-4.47c2.05-2.18,3.08-4.23,3.08-6.15,0-.99-.31-1.8-.92-2.41-.62-.62-1.42-.92-2.41-.92-.82,0-1.48.23-1.99.69-.49.44-.97,1.24-1.44,2.39l-.5-.12"/>
    </g>
    <g id="use8003-7">
      <path id="path25185-4" class="cls-17" d="m187.95,293.58c-.08.36-.16.68-.24.95-.08.27-.24.65-.5,1.16-.27.52-.56.95-.88,1.28-.33.35-.78.65-1.35.92-.58.27-1.24.4-1.96.4-1.23,0-2.26-.4-3.1-1.21-.85-.8-1.28-1.8-1.28-2.98,0-1.78,1.01-3.73,3.03-5.85l3.98-4.17h-5.66c-.54,0-.93.09-1.18.26-.27.19-.62.62-1.07,1.3l-.31-.12,1.3-3.24h9.23v.28l-4.21,4.47c-2.05,2.18-3.08,4.23-3.08,6.15,0,.99.31,1.8.92,2.41.62.62,1.42.92,2.41.92.82,0,1.48-.23,1.99-.69.49-.44.97-1.24,1.44-2.39l.5.12"/>
    </g>
  </g>
  <g id="g12830" class="cls-7">
    <path id="path1505-3" class="cls-16" d="m165.44,272.28c3.99-2.85,2.28-13.29,2.28-13.29l-2.66-3.61c-4.56-15.19,1.71-13.86,1.71-13.86l-1.71-8.93c-3.23-6.46,1.52-10.07,1.52-10.07l-.19-2.09c2.66-9.69-2.09-20.32-2.09-20.32l-1.14,4.94-6.27,11.39-9.88,13.29-6.27,7.22-10.64,16.52-4.18,7.98s-2.66,15.76,9.12,21.84c0,0,1.71,6.65,12.53,6.08,0,0,5.7,1.71,10.45-3.23l3.61-4.75,1.14-4.75,2.66-4.37Z"/>
    <path id="path1491-6" class="cls-12" d="m143.47,40.18s4.57,10.74,9.13,9.67c3.22-.27,2.15-5.37,2.15-5.37l-10.21-15.04-1.07,10.74Z"/>
    <path id="path1493-75" class="cls-16" d="m166.2,184.73c1.9-4.18-.76-14.62-.76-14.62l-.19-4.94c3.04-4.37-.19-16.52-.19-16.52-.95-4.37-1.33-9.88-1.33-9.88v-3.42l-.11-12.44c2.42-1.34,1.88-6.71,1.88-6.71-1.34-4.57-5.1-32.5-5.1-32.5l-2.15-35.45-3.49-2.95c-1.07,11.55-9.4-.81-9.4-.81,0,0,1.34,31.96-1.34,43.24,0,0-3.22,4.3-1.07,8.86l-1.61,1.88v2.95l-1.61,1.07,1.34,3.22-2.15,10.21,1.07,1.88s-.18,3.68-1.7,4.44l-2.85,11.39-3.23,6.46.76,7.22,4.56.57s-3.61,11.96-1.9,26.4c0,0-3.23,19.94-3.23,25.07l-.57,1.9-4.75,7.6-.19,6.08,2.09,1.52s-5.13,24.12-4.18,33.99l3.8-3.61s11.39-15.95,13.86-17.09c0,0,15.76-19.37,18.04-28.49l.76-1.9s4.75-10.07,4.94-14.62h0Z"/>
    <path id="path1495-3" class="cls-15" d="m150.24,218.34s3.23-6.84-.95-12.91l-1.33-3.04-.57,2.09s-3.61,3.61-1.9,11.39c0,0-7.41.19-7.98,1.52,0,0,2.09,7.22,10.26,4.75l2.47-3.8Z"/>
    <path id="path1497-56" class="cls-14" d="m123.27,110.66c-1.71-1.52-2.47-9.12-2.47-9.12l7.6,3.04-.95-1.52c-2.28-5.51-1.52-16.14-1.52-16.14l2.28,7.03,1.71-4.37,4.94-2.85s-1.71,6.84-4.56,8.93c0,0,.76,13.86,8.36,20.89l1.33,1.52-1.14,4.37s-7.98-8.36-7.98-8.93c0,0-8.74,3.42-10.07,4.37l2.47-7.22Z"/>
    <path id="path1499-29" class="cls-14" d="m169.8,173.71s.76-4.75,2.66-5.51l1.14-4.37s3.61,6.08,2.66,10.07c0,0,2.28.95,2.85,2.09l.38.95,3.23.38s-2.09,5.89-9.12,6.46l-2.85-.76-.95-9.31Z"/>
    <path id="path1501-1" class="cls-6" d="m125.17,250.44l6.84-8.36,9.31-11.02,8.17-10.64,7.03-10.45,4.18-9.5s8.74-15,5.32-29.44c0,0,6.08,2.09,4.56,11.77l-4.75,15.19-1.71,2.66s-4.56,15.57-15.19,26.59l-3.61,4.18-8.93,12.72s-9.5,14.81-10.26,17.66l-2.85-2.66.19-4.94,1.71-3.8Z"/>
    <path id="path1503-2" class="cls-15" d="m136.38,243.6s-2.66,7.03.57,10.83c0,0,2.28,3.42,2.28,4.94,0,0,1.33-5.51,3.04-5.51l5.32,2.28s2.47-6.46-3.42-10.26c0,0-5.32-2.28-5.13-6.27l-2.66,3.99Z"/>
    <path id="path1509-7" class="cls-13" d="m167.71,257.66c1.9-2.28.95-7.03.95-7.03l-1.71-8.55s-5.89-3.23-3.04,9.5c0,0,.95,5.7,3.8,6.08h0Z"/>
    <path id="path1511-0" class="cls-13" d="m169.04,229.74c.95-2.09-2.09-7.41-2.09-7.41,0,0-5.13,3.8-1.9,10.07,2.66,1.33,3.99-2.66,3.99-2.66Z"/>
    <path id="path1513-9" class="cls-8" d="m42.75,96.61c-3.04,7.6,2.28,17.47,2.28,17.47l12.53-18.8,6.46-9.69,7.6-10.64,4.94-6.84,7.41-12.53s.57-13.67-5.89-16.52l-5.32-6.84-5.13-2.85h-2.85l-5.32.19-4.75,1.9-4.94,3.61-3.8,9.31s-4.94,4.75-3.23,16.33l-1.14,1.33-1.33,8.55,1.9,4.94,2.47,6.84v4.94l-3.61.19-1.52,3.61,3.23,5.51Z"/>
    <path id="path1515-36" class="cls-8" d="m78.45,176.18c.57-7.79-6.27-3.23-6.27-3.23l1.71-10.83.38-10.07,2.47-15.76v-18.04l6.65-8.36.19-6.65-2.09-3.04,1.33-19.94c3.42-4.18,1.14-14.43,1.14-14.43l-3.99,5.13-16.9,24.88s-11.58,16.14-12.34,19.37c0,0-8.93,14.81-7.79,24.12,0,0,2.09,3.8,1.71,8.17l-.19,8.93-.95,2.09v1.71l1.71,7.98s-.38,4.18,1.33,6.08l1.14,20.13s-4.37-2.47-3.23,3.99l2.66,7.22,1.52,11.02,2.47,11.21,1.14,8.55,1.33,11.21.95,19.94s6.27-4.75,11.39,3.61l-1.14-22.6,2.28-17.85,1.33-4.75,1.71-5.13v-1.71l1.33-1.9-.76-3.99.95-11.77s-.76-5.51.95-5.89c0,0,.57-10.45,4.37-13.86,0,0,1.52-2.09,1.52-5.51h0Z"/>
    <path id="path1517-06" class="cls-14" d="m38,136.68l2.47,7.98,1.52,2.66s-2.66,3.8-4.18,5.13c0,0-2.47.95-2.47,4.18l-1.71-3.8s-2.47-5.51-1.14-8.74l-6.84-2.09,2.47-2.66,3.8-3.04s5.32-.38,6.08.38h0Z"/>
    <path id="path1519-2" class="cls-9" d="m53.96,267.15l.38,4.56s7.22,7.22,7.6,9.12l3.23,5.89,3.04,2.66.38-5.51-.76-6.08-2.09-6.65s-4.18-5.7-8.17-5.13l-3.61,1.14Z"/>
    <path id="path1521-61" class="cls-18" d="m88.14,236.95c-1.52-1.71-5.89-14.05-5.89-14.05l-2.85-9.69-2.66-5.89-4.56-6.08c-1.33-4.56.38-5.7.38-5.7,0,0,10.07,13.1,10.45,15.95,0,0,1.52,4.56,1.52,6.08l3.61,19.37Z"/>
    <path id="path1523-8" class="cls-14" d="m80.73,218.72l-5.32,6.08.57,8.55,4.94-3.99.95-7.98-1.14-2.66Z"/>
    <path id="path1525-79" class="cls-15" d="m90.99,218.15c-.76-1.52-6.46-3.42-6.46-3.42l-4.37-9.12s3.04-7.03,6.46-7.79l5.51-2.47-2.28,9.69-.95,1.71,2.09,5.32s1.71,4.18,0,6.08h0Z"/>
    <path id="path1527-2" class="cls-10" d="m42.94,138.01c-.76-13.48,16.9-36.84,16.9-36.84l13.29-20.32,8.17-11.39,5.13-6.65c1.9-3.99-3.04-7.22-3.04-7.22l-5.7,10.64-5.7,8.93-3.8,4.37-5.13,7.6s-17.66,26.21-18.04,27.54c0,0-6.65,15.76-6.65,21.27,0,0,.57,7.03,2.47,9.69l3.42,2.47v-4.94l-1.33-5.13Z"/>
    <path id="path22105-3-2" class="cls-11" d="m61.94,40.42c-5.95,2.58-2.82,9.93-3.41,15.37-.1,10.08-.66,26.02-.76,31.29.13.59.26,2.57.37,5.12l8.37-11.99c.2-3.94.34-7.99.36-12.29-1.08-7.68.47-25.61-4.94-27.49h0Z"/>
    <path id="path22105-3-2-9" class="cls-11" d="m65.23,92.59l-7.45,10.6c.5,17.92.86,48.73,1.04,67.84.89,19.67,1.46,39.35,1.32,58.89.03,2.28-.12,11.96.04,5.15.55-18.62,1.39-54.02,1.39-54.02.12-13.81,1.85-25.64,2.13-39.4.31-8.94.63-17.84.42-26.92.13-7.92.63-15.03,1.11-22.15h0Z"/>
    <path id="path22105-3-2-1" class="cls-11" d="m152.24,74.15s-.11,5.83-.18,7.54c-.4,19.54-1.51,39.19-2.95,58.83-.64,17.34-1.7,44.54-2.64,62.8-.04.78-.08,1.55-.12,2.3-.47,8.97-.91,15.36-1.23,16.62,0,.29,0,1.18,0,1.54l8.01-10.54c-.19-5.23-.35-10.53-.28-16.3.46-9.07.39-17.98.32-26.92.1-13.76-1.3-25.64-1.04-39.45,0,0,.13-35.41.1-54.03,0-1.7,0-2.37,0-2.39h0Z"/>
    <path id="path22105-3-2-1-2" class="cls-11" d="m153.67,220.64l-8.35,10.19c0,6.79,0,14.45-.11,20.65.44,5.45-2.89,12.71,2.98,15.45,5.46-1.74,4.41-19.7,5.7-27.35.16-6.74,0-12.89-.22-18.95h0Z"/>
    <path id="path962-02" class="cls-5" d="m83.58,65.97l-21.49,31.42s-24.44,32.5-17.99,44.32c0,0,1.07,4.03,0,6.45"/>
    <path id="path966-37" class="cls-5" d="m83.31,56.03s-6.45,12.89-11.01,17.99c0,0-15.85,21.22-27.4,40.82"/>
    <path id="path968-5" class="cls-5" d="m42.48,90.95l2.69,2.15v3.49"/>
    <path id="path970-9" class="cls-5" d="m74.45,61.67c-.81-3.22-5.1-5.64-5.1-5.64l-4.03,7.52s-5.91,0-8.06.81c0,0,4.83,8.59,11.28,7.79"/>
    <path id="path972-22" class="cls-5" d="m78.47,47.7v12.89"/>
    <path id="path974-8" class="cls-5" d="m70.69,64.09l.27,9.13"/>
    <path id="path976-97" class="cls-5" d="m75.25,63.28s-.81,5.37-2.15,6.45"/>
    <path id="path978-36" class="cls-5" d="m65.31,64.62l3.22,6.45"/>
    <path id="path980-12" class="cls-5" d="m61.02,66.24s3.76,1.61,4.57,2.69"/>
    <path id="path982-93" class="cls-5" d="m62.09,40.99s-1.34-9.4,6.71-5.37c0,0,4.83-2.15,4.57,6.45"/>
    <path id="path984-194" class="cls-5" d="m80.35,48.78s.27-5.91-3.76-6.71l-1.07,2.95s-4.03,0-1.07,3.49c0,0,1.61,2.15-.27,2.95,0,0,2.69,1.61,0,3.22"/>
    <path id="path986-78" class="cls-5" d="m44.9,65.97s2.95,5.37.81,12.35"/>
    <path id="path988-4" class="cls-5" d="m48.39,73.22s.81,5.64-1.61,8.06"/>
    <path id="path990-5" class="cls-5" d="m78.74,76.17l-1.88,21.76s.54,2.42-2.42,2.42"/>
    <path id="path992-0" class="cls-5" d="m81.43,72.41s0,3.49-.81,5.64l-1.07,14.23"/>
    <path id="path994-36" class="cls-5" d="m79.28,95.24l-.81,4.83"/>
    <path id="path996-10" class="cls-5" d="m65.58,95.51s7.25,1.07,7.79,6.45c0,0-5.1-.27-6.71,2.69,0,0,0,9.94-4.03,12.09,0,0-4.83-2.69-5.1-8.86"/>
    <path id="path998-63" class="cls-5" d="m60.75,103.3l4.3.81"/>
    <path id="path1000-2" class="cls-5" d="m62.36,105.45l-.27,7.52"/>
    <path id="path1002-0" class="cls-5" d="m62.36,100.88l6.45-1.07"/>
    <path id="path1004-61" class="cls-5" d="m69.88,113.51v12.35l-1.61,2.42"/>
    <path id="path1006-5" class="cls-5" d="m78.21,105.99l1.34,5.1s-6.71,2.42-6.18,6.98l1.34,1.88"/>
    <path id="path1008-547" class="cls-5" d="m64.78,132.04s.54,5.64,4.3,5.91"/>
    <path id="path1010-65" class="cls-5" d="m45.44,168.57s2.42,2.42,2.95-12.62"/>
    <path id="path1012-69" class="cls-5" d="m46.78,172.86s3.76.81,3.76-12.35"/>
    <path id="path1014-37" class="cls-5" d="m38.19,136.34s1.34,8.33,3.49,10.21"/>
    <path id="path1016-4" class="cls-5" d="m32.12,144.09s4.18-1.71,4.94-2.47"/>
    <path id="path1018-52" class="cls-5" d="m33.06,139.15s2.28,0,3.61.19"/>
    <path id="path1020-5" class="cls-5" d="m36.29,143.71l-.76,5.7"/>
    <path id="path1022-47" class="cls-5" d="m64.4,143.71l.19,7.98.95.19-.19,4.56,1.14.76"/>
    <path id="path1024-44" class="cls-5" d="m63.83,158.14l2.47,1.71-.19,12.15s0,1.71,1.33,1.71"/>
    <path id="path1026-30" class="cls-5" d="m64.02,165.55l.57,9.88s.57,1.33,2.28,1.33"/>
    <path id="path1028-78" class="cls-5" d="m71.05,159.09l-.95,12.91"/>
    <path id="path1030-68" class="cls-5" d="m68.58,160.42l-.38,10.07"/>
    <path id="path1032-84" class="cls-5" d="m48.07,194.41s5.7,9.88-.95,11.21"/>
    <path id="path1034-3" class="cls-5" d="m72.19,178.65l.95,3.8s-2.47,3.42-2.47,8.74"/>
    <path id="path1036-1" class="cls-5" d="m74.47,175.42l.38,4.37s0,1.71,3.23,0"/>
    <path id="path1038-49" class="cls-5" d="m72.19,194.79s-2.09,2.09-.38,6.27"/>
    <path id="path1040-2" class="cls-5" d="m80.73,206.57s2.85,4.94,3.42,8.93"/>
    <path id="path1042-06" class="cls-5" d="m87.95,200.87s-2.47,4.94-6.08,5.51"/>
    <path id="path1044-8" class="cls-5" d="m83.39,208.28s3.8-1.14,5.51-.95"/>
    <path id="path1046-92" class="cls-5" d="m85.48,209.61s3.04,2.09,3.23,4.18"/>
    <path id="path1048-66" class="cls-5" d="m69.91,181.31l.38,2.09s-1.52,3.8-1.52,7.22"/>
    <path id="path1050-4" class="cls-5" d="m69.53,193.08l-.19,4.37"/>
    <path id="path1052-95" class="cls-5" d="m66.87,199.35l-.38,5.7s-3.23,1.33-3.61,2.66"/>
    <path id="path1054-04" class="cls-5" d="m69.34,200.11l-1.33,10.45"/>
    <path id="path1056-87" class="cls-5" d="m70.67,212.84s-5.13-3.23-6.65,4.94"/>
    <path id="path1058-1" class="cls-5" d="m68.39,216.25s-2.28,2.66-1.71,3.99c0,0,2.09,3.42-1.52,5.13"/>
    <path id="path1060-727" class="cls-5" d="m53.01,209.04c0-1.9-1.33-5.51-1.33-5.51,0,0-.19,6.84-2.09,7.22"/>
    <path id="path1062-22" class="cls-5" d="m50.16,171.81l-.38,5.13"/>
    <path id="path1064-61" class="cls-5" d="m65.35,227.27s1.33,4.75-2.47,4.94c0,0,2.09,1.14,1.33,6.46l-.95,6.84-.38.19-.76,14.43"/>
    <path id="path1066-0" class="cls-5" d="m60.41,229.74l-.19,5.32,1.9.57v3.8l-.95-.38.38,3.61-.57.38-.57,13.67"/>
    <path id="path1068-6" class="cls-5" d="m54.34,267.15s5.51-4.75,11.39,3.99"/>
    <path id="path1070-1" class="cls-5" d="m64.97,275.13s-4.56-7.41-5.89-4.75c0,0-.95,1.14,1.71,3.61,0,0,2.47,2.66,3.04,6.08"/>
    <path id="path1072-5" class="cls-5" d="m66.11,209.8s-3.61,1.14-3.61,6.27"/>
    <path id="path1074-949" class="cls-5" d="m124.22,252.53s8.93-12.34,17.66-22.41c0,0,14.62-17.28,19.37-30.77,0,0,8.36-13.67,4.37-28.87"/>
    <path id="path1076-09" class="cls-5" d="m169.23,172.76s2.09,7.03,1.33,10.64"/>
    <path id="path1078-177" class="cls-5" d="m171.89,176.94s2.47-2.66,2.47-5.13"/>
    <path id="path1080-11" class="cls-5" d="m172.46,180.55s3.23,0,4.56-1.71"/>
    <path id="path1082-5" class="cls-5" d="m164.11,200.3s-.76,10.64-18.8,30.96c0,0-12.34,16.33-19.37,30.77"/>
    <path id="path1084-97" class="cls-5" d="m139.8,243.41s-2.09,10.07,7.79,12.34c0,0,2.47-7.22-4.56-10.07"/>
    <path id="path1086-7" class="cls-5" d="m135.62,247.59s-1.9,4.37,2.09,8.36c0,0,1.33,1.9,1.14,4.56,0,0,1.14-5.51,2.28-6.08"/>
    <path id="path1088-67" class="cls-5" d="m163.35,217.77s-1.14,5.13.19,7.6"/>
    <path id="path1090-36" class="cls-5" d="m166.96,222.33s-4.75,3.04-2.66,9.5"/>
    <path id="path1092-5" class="cls-5" d="m165.44,241.7s-4.75-.38-.19,14.05"/>
    <path id="path1094-63" class="cls-5" d="m132.96,270.95s-.76,8.17,9.12,11.02"/>
    <path id="path1096-94" class="cls-5" d="m147.01,277.41s3.04,3.04.19,4.94c0,0,1.9,2.66-3.04,2.66,0,0-3.61,1.33-6.65-1.9"/>
    <path id="path1098-8" class="cls-5" d="m129.92,273.42s2.47,5.51,4.37,6.08"/>
    <path id="path1100-12" class="cls-5" d="m130.87,257.85s1.14,14.24-1.33,12.91"/>
    <path id="path1102-9" class="cls-5" d="m137.14,221.38s-1.71,9.31-1.14,12.53"/>
    <path id="path1104-39" class="cls-5" d="m134.1,216.82s-1.9,14.43-.57,20.32"/>
    <path id="path1106-0" class="cls-5" d="m130.87,223.09s-.95,11.77-.38,17.09"/>
    <path id="path1108-88" class="cls-5" d="m147.77,219.67c-3.61-6.46-10.26-2.66-10.26-2.66,0,0,.38,5.32,8.17,5.7"/>
    <path id="path1110-5" class="cls-5" d="m145.3,214.35s-1.52-6.08,2.47-10.45l.19-2.28s1.9,5.13,2.66,5.51c0,0,2.09,6.08,0,8.17"/>
    <path id="path1112-0" class="cls-5" d="m134.1,201.63s4.94-1.52,4.75.95"/>
    <path id="path1114-96" class="cls-5" d="m141.32,210.37l.38-5.7h2.85s-1.14,2.28-1.14,4.75"/>
    <path id="path1116-3" class="cls-5" d="m136.38,179.22s2.09-.19,2.09,3.99c0,0-1.9,8.93-1.33,14.43"/>
    <path id="path1118-8" class="cls-5" d="m138.85,154.34s-1.71,11.2-.95,18.42"/>
    <path id="path1120-56" class="cls-5" d="m141.13,156.05s-1.71,15-.95,20.13c0,0,1.14,1.52.57,6.46"/>
    <path id="path1122-1" class="cls-5" d="m145.87,154.53l-.19,14.62"/>
    <path id="path1124-1" class="cls-5" d="m139.04,116.55s2.09,2.47-.95,6.27"/>
    <path id="path1126-59" class="cls-5" d="m127.26,104.77s2.66,5.7,3.23,8.17"/>
    <path id="path1128-84" class="cls-5" d="m124.22,106.48c.19,1.14,2.09,4.18,2.09,4.18l1.71-.38"/>
    <path id="path1130-8" class="cls-5" d="m140.94,107.24s5.32,2.47,5.7-4.37"/>
    <path id="path1132-1" class="cls-5" d="m159.17,108.19s1.33,16.52,4.37,14.43"/>
    <path id="path1134-03" class="cls-5" d="m163.92,145.23s-4.56-2.09-4.18,5.13"/>
    <path id="path1136-0" class="cls-5" d="m164.68,147.69s-4.37-1.52-2.28,9.12"/>
    <path id="path1138-4" class="cls-5" d="m147.96,124.33l-1.33,3.61-.95,9.69-1.14,1.9"/>
    <path id="path1140-44" class="cls-5" d="m145.68,109.71s-.76,10.83-2.47,14.43c0,0-3.04,7.03-1.33,9.12"/>
    <path id="path1142-476" class="cls-5" d="m143.03,110.47s-.95,10.26-1.9,11.96c0,0-1.9,7.79-1.71,10.07"/>
    <path id="path1144-3" class="cls-5" d="m145.49,43.81s4.94,8.36,7.98,6.46c0,0,2.28-1.14,1.52-5.7"/>
    <path id="path1146-17" class="cls-5" d="m147.39,38.68s6.65,6.84,4.56,8.74c0,0-2.47-.57-3.99-4.56"/>
    <path id="path1148-59" class="cls-5" d="m148.53,51.6l3.61,2.47s-2.66.57-2.66,11.77"/>
    <path id="path1150-6" class="cls-5" d="m150.81,69.07s-.57,3.04.38,6.08c0,0-2.28,1.71.76,3.99,0,0-2.28,1.33-1.14,4.37,0,0-1.33,3.23-.57,4.56,0,0-.95,3.42-.95,7.79"/>
    <path id="path1152-21" class="cls-5" d="m161.07,234.68s1.14,4.18.38,7.6"/>
    <path id="path951-7" class="cls-3" d="m144.36,29.57l14.05,19.75s2.28,45.96,6.46,64.19c0,0,2.66,7.22-1.9,9.88,0,0,1.52,12.91.38,14.81l1.14,8.74s4.23,11.16.74,18.14l.54,5.64s3.22,1.07,3.76,3.49c0,0,.81-5.1,2.95-6.71l.81-3.76s4.57,5.37,3.22,9.94c0,0,2.69,1.61,2.95,3.22l3.76.54s-4.83,8.33-12.35,5.91c0,0-4.03,12.89-6.45,16.65,0,0,3.22,12.89,2.15,19.88,0,0,1.07,4.83,2.42,6.71,0,0,1.88,7.52-4.57,5.64l3.76,14.77s2.15,6.71-.54,11.28c0,0,1.34,9.67-1.88,13.7,0,0-2.95,3.76-2.95,5.64,0,0-4.57,14.5-15.58,11.82,0,0-9.67.81-12.09-5.91,0,0-10.74-4.83-9.13-21.76,0,0-4.57-1.07-1.34-9.67,0,0,.81-24.17,4.57-35.45l-2.15-1.34v-6.71l5.1-7.25s.81-16.92,3.49-26.32c0,0-2.15-17.46,1.88-27.13l-4.57-.27s.27-4.57-.54-8.33c0,0,2.42-4.3,3.49-5.37l2.42-11.28s-7.79-8.86-7.79-10.47c0,0,.54,3.49-9.67,5.37,0,0,.81-4.03,2.95-6.45,0,0-3.49-5.37-2.95-8.86,0,0,5.64,1.07,6.98,3.49,0,0-3.22-11.01-2.15-20.68l2.42,8.86,1.61-4.3,4.83-2.95s-.27,6.71-4.3,8.59c0,0-1.07,11.28,8.59,21.76,0,0,1.88-5.64,1.88-10.74l-1.34-3.49,2.15-1.61s-1.34-3.49.81-4.3c0,0-1.34-5.91,1.61-8.59,0,0,2.69-18.8,1.88-39.21l-.54-6.18-1.34-2.15s.69-7,.35-11.15h0Z"/>
    <path id="path953-85" class="cls-3" d="m54.84,272.24s8.06,8.06,8.59,11.82c0,0,2.42,4.3,4.83,5.1,0,0,1.61-5.91-1.88-16.38,0,0-3.49-21.22.81-40.02l.81-5.64s2.42-3.22,1.88-7.52c0,0,2.95-1.88.81-6.98l1.07-11.55s8.06,7.25,8.86,17.73l-5.64,6.45s.54,6.18,1.07,8.33c0,0,4.03-2.95,4.83-4.57l.54-8.06,2.95,8.86s2.42,6.71,5.91,11.01c0,0-3.76-9.94-4.03-12.89,0,0-2.15-12.62-2.42-13.7,0,0,7.25,2.42,7.79,5.91,0,0,.54-9.94-2.95-12.62l1.61-2.69,1.34-9.13-6.45,2.95s-4.57,2.69-4.57,8.06c0,0-5.1-8.86-8.06-11.01,0,0-.81-7.79,5.37-15.31,0,0,3.22-9.4-2.95-9.13l-2.42,1.34s2.15-14.23,1.88-20.41c0,0,3.49-22.56,2.15-30.62v-3.49l6.71-8.06v-6.98l-1.61-2.95,1.07-18.53s2.69-7.52,1.34-15.31l2.42-4.03s1.07-4.57-2.42-5.91l-.54-7.79s-1.88-8.33-6.18-9.4c0,0-5.1-10.47-11.55-9.4,0,0-15.85-4.03-19.34,14.23,0,0-5.64,5.1-3.76,16.65,0,0-4.83,6.18.54,17.99,0,0,1.88,6.18,1.34,9.13,0,0-8.86-2.69-2.15,9.13,0,0-1.34,12.09,2.42,17.73,0,0-6.98,17.19-6.71,22.29,0,0-5.64-4.03-11.28,4.03l-2.15,1.34s6.18.27,7.25,1.88c0,0-1.07,7.79,2.42,9.13l.54,3.22s2.15-4.83,3.49-4.83c0,0,3.22-1.88,3.22-4.57l2.95,1.34-.54,8.59s-2.42,0,1.07,11.82c0,0-.27,3.76,1.88,5.37l.54,19.88s-6.45-1.34-.54,12.35c0,0,1.88,14.5,4.03,20.95,0,0,2.95,23.9,2.69,28.74,0,0,.27,14.23,1.07,16.11Z"/>
  </g>
  <path id="path14984" class="cls-2" d="m74.43,122.99s-.3,13.14-.9,15.83"/>
  <path id="path14986" class="cls-2" d="m72.64,142.1s-1.49,11.95-1.19,13.44"/>
  <path id="path14988" class="cls-2" d="m68.46,154.95l.9-13.74,2.39-2.99-1.19-3.88.3-4.78"/>
  <path id="path14990" class="cls-2" d="m74.43,102.38v6.27s-2.69,2.69-2.69,3.88"/>
  <path id="path14992" class="cls-2" d="m79.81,102.38l1.49,5.68"/>
  <path id="path14994" class="cls-2" d="m65.77,180.04l1.49,2.99s-2.69,6.87-1.49,12.54"/>
  <path id="path14996" class="cls-2" d="m72.34,120l-.6,7.77"/>
  <path id="path14998" class="cls-2" d="m75.63,80.58l-1.19,15.83"/>
  <path id="path15000" class="cls-2" d="m81.3,50.41l-.3,7.17"/>
  <path id="path15002" class="cls-2" d="m74.73,56.68l2.39,6.27"/>
  <path id="path15004" class="cls-2" d="m63.68,219.76s-1.49,4.48-1.19,7.77"/>
  <path id="path15006" class="cls-2" d="m134.17,204.83s2.39,5.08-2.99,10.45"/>
  <path id="path15008" class="cls-2" d="m139.25,205.72l-2.39,8.66"/>
  <path id="path15010" class="cls-2" d="m140.44,197.06l.6-11.65s2.99-1.79,2.99-4.78"/>
  <path id="path15012" class="cls-2" d="m143.13,162.41l-.3,13.74"/>
  <path id="path15014" class="cls-2" d="m138.35,135.53l1.79,7.47-.9,2.69"/>
  <path id="path15016" class="cls-2" d="m141.34,136.73s2.99,10.16-1.49,14.04"/>
  <path id="path15018" class="cls-2" d="m145.82,140.91l-2.99,11.35.3,5.08"/>
  <path id="path15020" class="cls-2" d="m143.13,189.3l-.9,10.45-2.09.6"/>
  <path id="path15022" class="cls-2" d="m139.54,224.24l-.6,5.68"/>
  <path id="path15024" class="cls-2" d="m132.08,253.81s2.69,8.06,1.49,13.74"/>
  <path id="path15026" class="cls-2" d="m128.49,260.08l.3,5.97"/>
  <path id="path15028" class="cls-2" d="m147.91,111.64l-1.79,12.54"/>
  <path id="path15030" class="cls-2" d="m147.91,79.98l-1.49,17.62,2.39,4.18"/>
  <path id="path15032" class="cls-2" d="m147.61,67.13l-.3,9.86"/>
  <path id="path15034" class="cls-2" d="m145.82,174.96s1.49,8.66-.6,11.35"/>
</svg>