<?xml version="1.0" encoding="UTF-8"?>
<svg id="Capa_1" data-name="Capa 1" xmlns="http://www.w3.org/2000/svg" xmlns:xlink="http://www.w3.org/1999/xlink" viewBox="0 0 208 319">
  <defs>
    <style>
      .cls-1, .cls-2, .cls-3, .cls-4, .cls-5, .cls-6, .cls-7, .cls-8, .cls-9, .cls-10, .cls-11 {
        stroke: #010101;
      }

      .cls-1, .cls-2, .cls-4, .cls-5, .cls-6, .cls-9, .cls-10, .cls-11 {
        fill: none;
      }

      .cls-12 {
        fill: #d7eef9;
      }

      .cls-13 {
        fill: #fff;
      }

      .cls-14 {
        fill: #eb5759;
      }

      .cls-15 {
        fill: #ffcc07;
      }

      .cls-16 {
        isolation: isolate;
      }

      .cls-17 {
        fill: #ffdd56;
      }

      .cls-18 {
        fill: url(#Degradado_sin_nombre_55);
      }

      .cls-2 {
        stroke-linejoin: bevel;
      }

      .cls-2, .cls-4, .cls-5, .cls-6, .cls-8, .cls-9, .cls-11 {
        stroke-linecap: round;
      }

      .cls-2, .cls-5 {
        stroke-width: .6px;
      }

      .cls-19 {
        fill: #e73736;
      }

      .cls-20 {
        fill: #90d3ee;
      }

      .cls-3 {
        fill: #ef7e81;
        stroke-width: .31px;
      }

      .cls-3, .cls-6, .cls-10, .cls-11 {
        stroke-miterlimit: 1.23;
      }

      .cls-4 {
        stroke-width: .68px;
      }

      .cls-4, .cls-8, .cls-9 {
        stroke-linejoin: round;
      }

      .cls-21 {
        fill: #250c0d;
      }

      .cls-6 {
        stroke-width: .56px;
      }

      .cls-7 {
        fill: url(#Degradado_sin_nombre_16);
        stroke-linecap: square;
      }

      .cls-22 {
        fill: #fea;
      }

      .cls-23 {
        fill: #ffe783;
      }

      .cls-24 {
        fill: #a9c823;
      }

      .cls-25, .cls-8 {
        fill: #e52521;
      }

      .cls-8, .cls-9 {
        stroke-width: .68px;
      }

      .cls-26 {
        fill: #6690cb;
      }

      .cls-10 {
        stroke-width: 1px;
      }

      .cls-27 {
        fill: #ffd42c;
      }

      .cls-28 {
        fill: #010101;
      }

      .cls-29 {
        fill: #f5e4d7;
      }

      .cls-30 {
        fill: #4373b8;
      }

      .cls-11 {
        stroke-width: .7px;
      }
    </style>
    <linearGradient id="Degradado_sin_nombre_16" data-name="Degradado sin nombre 16" x1="-1862.93" y1="1478.57" x2="-2382.8" y2="1478.57" gradientTransform="translate(1998 1638.07) scale(1 -1)" gradientUnits="userSpaceOnUse">
      <stop offset="0" stop-color="#fff"/>
      <stop offset="1" stop-color="#cdcccc"/>
    </linearGradient>
    <radialGradient id="Degradado_sin_nombre_55" data-name="Degradado sin nombre 55" cx="-984.82" cy="500.06" fx="-984.82" fy="500.06" r="9.35" gradientTransform="translate(-1234.13 1955.16) rotate(110.11) scale(2.19 -1.24)" gradientUnits="userSpaceOnUse">
      <stop offset="0" stop-color="#ec681c"/>
      <stop offset="1" stop-color="#ec681c" stop-opacity="0"/>
    </radialGradient>
  </defs>
  <g id="g32493">
    <rect id="use6349" class="cls-7" x=".5" y=".5" width="207" height="318" rx="15" ry="15"/>
    <path id="use6351" class="cls-1" d="m157.43,16.08h35.6v289h-35.6m-35.6,0h-35.6m-35.6,0H15.03V16.08h35.6m35.6,0h35.6"/>
    <g id="use6378">
      <g id="g3276">
        <g id="use3272">
          <path id="path25113" class="cls-28" d="m23.2,24.5c-.28,0-.83.17-1.67.51v-.32l4.17-2.11.19.05v13.91c0,.56.14.92.42,1.09s.87.26,1.79.28v.35h-6.4v-.35c.87-.03,1.45-.15,1.74-.37.31-.23.46-.71.46-1.44v-10.5c0-.73-.23-1.09-.7-1.09"/>
          <path id="path25115" class="cls-28" d="m40.15,36.35c-.96,1.48-2.23,2.23-3.8,2.23s-2.84-.76-3.8-2.27-1.44-3.46-1.44-5.84c0-2.24.48-4.11,1.44-5.61.96-1.51,2.26-2.27,3.9-2.27,1.51,0,2.75.74,3.71,2.23s1.44,3.42,1.44,5.8-.48,4.27-1.44,5.75m-3.78-13.17c-2.03,0-3.04,2.5-3.04,7.49s1,7.3,3.01,7.3,3.01-2.44,3.01-7.33c0-2.43-.26-4.27-.77-5.54-.51-1.28-1.25-1.92-2.23-1.92"/>
        </g>
        <g id="use3274">
          <path id="path25119" class="cls-28" d="m188.86,300.65c.28,0,.83-.17,1.67-.51v.32l-4.17,2.11-.19-.05v-13.91c0-.56-.14-.92-.42-1.09s-.87-.26-1.79-.28v-.35h6.4v.35c-.87.03-1.45.15-1.74.37-.31.23-.46.71-.46,1.44v10.5c0,.73.23,1.09.7,1.09"/>
          <path id="path25121" class="cls-28" d="m171.91,288.8c.96-1.48,2.23-2.23,3.8-2.23s2.84.76,3.8,2.27,1.44,3.46,1.44,5.84c0,2.24-.48,4.11-1.44,5.61-.96,1.51-2.26,2.27-3.9,2.27-1.51,0-2.75-.74-3.71-2.23s-1.44-3.42-1.44-5.8.48-4.27,1.44-5.75m3.78,13.17c2.03,0,3.04-2.5,3.04-7.49s-1-7.3-3.01-7.3-3.01,2.44-3.01,7.33c0,2.43.26,4.27.77,5.54.51,1.28,1.25,1.92,2.23,1.92"/>
        </g>
      </g>
    </g>
  </g>
  <g id="g15506" class="cls-16">
    <path id="path1263-32" class="cls-17" d="m97.78,73.91s5.71-4.53,8.51-3.02l.22-3.23-2.48-2.26-2.26-4.09-.65-3.88-1.19-2.59.43-5.17-.11-4.96.11-3.99,1.08-1.08,1.19.54,3.02-.86s2.8,2.05,6.68.11c0,0,5.82,5.93,8.08,6.36,0,0-1.29,3.56,3.34,6.36l.97,1.19-.75,5.17-.97,4.09,2.16,3.34,5.06,4.09,2.59,4.2v1.08s1.51,1.62,3.66.97l1.08-1.62-.54-2.05.43-2.59-3.45-4.31v-3.56l-1.94-4.09-2.59-.97-.22-3.66,1.4-4.09-1.62-4.31v-2.8l-2.37-3.66-2.48-1.72-2.05-3.12-4.42-2.8-3.34-.32-5.06,1.72-2.16.11-3.99.65-2.59,2.91-1.4,2.26-1.08,1.94s-1.08,4.09.75,10.13l-1.29,2.69.22,3.12,1.62,2.91-.86,3.56-2.26,2.91-1.83,2.37-.11,4.09.75,1.72,2.69.22Z"/>
    <path id="path1265-6" class="cls-22" d="m94.22,68.74l-2.05.22-2.26,4.31,4.09,1.29,1.19-1.29s-1.19-3.02-.97-4.53Z"/>
    <path id="path1267-0" class="cls-14" d="m84.74,76.07l2.91.43,2.26.65,2.05,2.59,2.37-.22-.11-1.83.22-2.91-1.4-.86-3.23-.86s-3.66-2.16-5.06,3.02Z"/>
    <path id="path1269-6" class="cls-22" d="m95.3,80.05s-2.8-2.59.22-5.93c0,0,3.56-1.08,4.85,2.05,0,0,2.8,5.5-5.06,3.88Z"/>
    <path id="path1271-9" class="cls-27" d="m75.04,96.65s-3.02-9.05,3.88-14.65c0,0,3.99-6.9,8.51-5.6l2.26,1.19,2.26,2.05,2.69.11,2.26.86s.11,3.12,1.51,4.63c0,0-.86,1.4.32,6.68l-.43.86-.32,2.8-1.19,2.69-1.62.86s-3.02,0-3.02,3.23l-4.31,5.82s-2.15-11.85-13.79-8.19l.97-3.34Z"/>
    <path id="path1273-68" class="cls-26" d="m73.86,99.77s12.07-3.66,14.22,8.51l-4.53,8.84-4.09,4.74-4.74,5.17-5.17,3.56-2.48,2.69v.97l-1.29-.65v-20.69l4.53-4.85,1.08-4.96,1.94-1.94.54-1.4Z"/>
    <path id="path1275-0" class="cls-12" d="m63.94,35.44l2.48,2.48-.54,96.01-3.34-1.08,1.4-97.41Z"/>
    <path id="path1277-8" class="cls-20" d="m63.73,35.23l-.86-1.72-4.09,4.09-1.08,96.65,4.96-1.19,1.08-97.84Z"/>
    <path id="path1279-6" class="cls-15" d="m50.37,139.21s-1.94,2.05-2.37,1.94-2.69-1.19-2.69-1.19l-.75-2.48.75-2.48,2.37-.43,2.26.75s2.91.97,7.65-.86l5.28-1.51,3.88.97,4.96,1.29,1.94.11s3.56-3.02,5.28,1.29l-.75,1.4-1.72,1.72-3.02-.86s-4.96-.54-7.54,1.4l-2.91.86s-10.45-2.48-12.61-1.94h0Z"/>
    <path id="path1281-7" class="cls-29" d="m65.34,140.61l2.48,2.48v2.26l.43,1.94s.65,3.66-.86,3.56l-1.62-.32s-.97,5.71-7,3.99c0,0-2.91-6.9-.65-14.55l4.63.97,1.4.11,1.19-.43Z"/>
    <path id="path1283-5" class="cls-15" d="m55,139.32l.11,5.6s-.75,2.69.65,4.53c0,0-1.4,4.42,2.48,5.17,0,0-2.05-11.74-.11-14.55l-3.12-.75Z"/>
    <path id="path1285-44" class="cls-15" d="m58.12,154.4s4.63,1.4,6.79-.86c0,0,3.77,3.45-.11,6.47,0,0,.97,5.17-3.45,4.96,0,0-3.77-1.4-2.15-5.17,0,0-1.62-1.94-1.08-5.39Z"/>
    <path id="path1287-6" class="cls-12" d="m58.02,128.43l-.22,6.36-2.69.32s.43-4.53,2.91-6.68Z"/>
    <path id="path1289-0" class="cls-29" d="m106.06,69.72l.61-2.44s-6.86-4.88-6.32-14.55v-7.16l-.08-5.1,1.14-.84,1.52.53,2.74-.76s2.67,1.9,5.87.23l2.51.99s3.5,4.8,6.48,5.03c0,0-1.75,3.2,3.66,7.01l.23,2.97-2.44,8.69.23,4.88,2.29,2.06,1.9,2.06.61,2.21-2.13,3.43s-3.05,4.72-4.88,4.8l-4.19.23s-4.27-4.8-14.78-5.94c0,0-.08-3.35-3.43-4.11,0,0,5.56-4.5,8.69-3.12l-.23-1.07Z"/>
    <path id="path1291-5" class="cls-19" d="m96.7,80.38l1.62,4.42s-3.12,8.19,8.73,19.83c0,0,6.57,16.59,30.92,17.24l6.68-5.06s6.9-3.99,7.43-9.91c0,0,4.53-6.25-4.31-10.13l-.86-.22s-.22-9.37-4.63-11.42c0,0,.11-5.5-5.6-8.62l-1.4.11-2.69-1.08-1.94-5.93-8.62-3.56s-.86,4.53,3.56,6.36c0,0,5.5,2.91-3.66,9.81,0,0-3.88,3.45-8.08.32,0,0-7-4.53-13.04-4.09,0,0-1.08,2.69-4.09,1.94h0Z"/>
    <path id="path1293-5" class="cls-30" d="m152.94,131.13c3.34-.22,3.99-7,3.99-7,5.6-10.24-3.88-14.65-3.88-14.65l-.86-2.48s-2.05,7.11-7.33,9.7c0,0,9.59,3.02,8.08,14.44Z"/>
    <path id="path1295-3" class="cls-23" d="m149.82,132.53c-1.83-10.45-9.16-12.82-9.16-12.82l4.31-3.12s10.56,4.31,7.33,14.76l-2.48,1.19Z"/>
    <path id="path1297-9" class="cls-29" d="m141.2,119.7l-3.23,2.16-2.37,4.31-.32.75,1.62.32,2.91-2.48,2.59-1.19-5.6,12.07,4.96,1.08,3.02.11h2.26l2.8-2.91.43-1.83s-2.05-8.08-9.05-12.39Z"/>
    <path id="path1299-1" class="cls-30" d="m87,110.01l3.12-5.93,2.15-1.72s-.54-3.45,3.34-3.34c0,0,4.2-3.23,3.12-6.9,0,0,3.56,9.37,8.4,11.74,0,0,6.47,17.89,30.71,18.32l-2.26,3.99-6.9-.86s-5.71,3.77-9.59.11c0,0-3.56,3.02-6.57.32l-4.63,1.72s-3.88-2.16-10.45,2.91l-2.69-3.34-3.34-3.12-1.83-2.8-1.4-3.56-.22-2.8.43-1.4-1.4-3.34Z"/>
    <path id="path1301-5" class="cls-27" d="m103.49,136.84s17.13-6.25,33.62-1.72l5.39-11.42-3.12,1.08-2.59,2.91-1.4-.75.22-1.08-6.9-.54s-4.2,3.99-9.27.11c0,0-3.12,2.05-7,.32l-4.85,1.83s-3.02-2.37-9.91,2.8l-2.05-1.29-3.45,1.62-2.91.43-3.23,3.66-3.45,2.16-1.72,2.05,1.62,3.99s-6.57,3.88-6.14,9.27l2.37,3.88-1.19,2.26-.22,4.2-2.26,2.37-.22,3.34-.86,3.02-1.83,3.45-.22,1.19,1.72.32.97,1.94,3.66,3.45-1.29,4.09.43,2.69-1.29,4.31-.97,3.34s4.63,4.42,12.93,3.02l.75-2.59.32-3.77,1.4-1.08.86-.54s17.13,2.59,23.6-.86c0,0,6.9,3.34,15.52-.86,0,0,14.44-.43,16.38-1.19,0,0-1.51-26.72-2.59-30.28,0,0-3.34-1.62-2.48,2.91,0,0-7.22.43-4.85,8.62,0,0-5.17.65-2.69,4.53l-1.83,1.72-.32,2.8s-2.48-.86-1.51,3.88c0,0,2.26,1.62,1.94,3.56,0,0-10.67,6.14-17.67,2.37h-6.03s4.42-5.39-1.29-5.39c0,0,.43-3.45-1.94-3.99v-2.8l1.72-.75.75-1.51s.22-6.68-6.14-2.91c0,0-3.77.32-4.31-2.59,0,0,2.91-1.29,1.19-4.31,0,0-2.91-4.09-5.17-.43l-1.29-1.08.22-4.2s2.91,5.39,7.54.97c0,0,4.96,2.69,7.43-2.59l.54-1.4s4.31-3.45,3.99-7.65l-1.19-2.48-1.4-1.51-1.51-.43-4.53-6.47Z"/>
    <path id="path1303-0" class="cls-30" d="m103.39,136.62s17.83-6.1,33.83-1.37l.15,1.37s6.4,7.01,7.01,21.64c0,0-3.2-1.68-2.29,2.44,0,0-7.01.46-5.18,8.69,0,0-5.64.91-2.44,4.72l-2.29,1.52-.15,3.2s-2.44-1.68-1.22,3.5c0,0,1.98,2.29,1.83,3.5,0,0-11.12,6.86-17.68,2.74l-5.94-.15s2.13-3.35.3-5.18l-1.83-.15-.46-2.59-1.37-1.98-.15-2.59s2.74,0,2.74-2.59c0,0-.46-4.72-4.88-3.35,0,0-2.44,4.11-5.79-1.68l1.22-.76.76-1.52-.38-1.6s-2.13-3.89-5.64-.91l-1.3-.99.38-4.19s1.9,4.88,7.54,1.14c0,0,5.26,2.97,7.7-2.9l.23-1.45s4.27-1.9,4.04-7.09l-1.83-3.5-2.29-1.6s-4.57-4.8-4.65-6.32h0Z"/>
    <path id="path1305-4" class="cls-21" d="m115.23,190.28c-7.22,3.77-23.71.75-23.71.75l-.43.75s.75.86.97,1.29c.22.43.11,7.11.11,7.11l1.72,8.4-.75-11.96s3.56-5.71,22.09-1.29c0,0,3.23.86,9.81-.22,0,0,12.71-3.34,14.12-.97l1.4-4.96-10.02.54s-7.65,3.88-15.3.54Z"/>
    <path id="path1307-9" class="cls-19" d="m92.28,202.78l2.48,8.94s-3.12,2.59-.54,9.81c0,0-3.66,15.3,0,25l.86,9.16s6.57,7.33,12.07.65l1.62-10.99,2.26-5.71,2.05-7.65s-.54-3.12-.54-3.99-.43-6.14-.43-6.14l-1.19-2.8,1.19-6.36,3.77-14.98,3.12,14.87-1.62,5.17s-5.5,7.65.32,21.12l.43,12.71s4.74,3.45,12.82-1.29v-2.59l.43-5.28,2.37-7.22.97-9.16s-.32-6.03-.32-7.11,2.59-6.9,2.59-6.9l.43-6.68.75-8.62.43-2.59s-1.83-2.26-13.36,1.19c0,0-6.68,1.94-15.84-.75,0,0-10.24-2.48-15.84,2.16l1.08,14.55s-2.37-5.39-2.37-8.51Z"/>
    <path id="path1309-6" class="cls-27" d="m118.57,251.59s-6.79,2.59-.97,8.84v5.6l-1.29,3.23-1.19,2.69,1.83,3.45s12.93,2.37,14.44,3.23c0,0,3.23.43,7.97-3.88l-6.03-3.99-4.42-4.85v-7.33s5.71-1.19,2.05-7.97c0,0-9.81,4.42-13.36.32l.97.65Z"/>
    <path id="path1311-7" class="cls-27" d="m94.87,255.36s7,7.11,12.71.75l2.05,3.45-.32,3.23-2.91,2.48-.43,10.67h-1.19l-.86,2.05s-10.45,8.51-11.53,10.02c0,0-4.53-2.37-6.36-2.16l.86-3.56,7.33-9.37.43-1.62.75-1.4s.86-4.09.65-4.96c0,0-6.68-4.09-1.19-9.59h0Z"/>
    <path id="path1313-4" class="cls-19" d="m105.75,275.4l.97,4.85-1.08,2.91-3.66,1.83-4.09,1.94-1.62,2.26-3.56,2.16-3.99.97h-3.12l-3.34,1.62-3.88-.54-1.29-2.69,1.94-1.83,1.4-3.12,4.85-3.02,1.83-.32-1.08,3.23s4.85,1.19,5.82,2.48c0,0,8.94-8.19,11.85-9.91,0,0,.86-2.8,2.05-2.8Z"/>
    <path id="path1315-30" class="cls-19" d="m115.02,273.14l-1.62,2.59,1.08,2.48,2.48,1.62,2.69.65s8.19.97,12.71,2.59l3.66.65,6.36.65,3.77-.54s3.77-1.08,2.91-3.66l-.75-1.4-2.59-.11-1.72-1.72-2.91-1.19-1.94-.86-3.02,2.16s-1.94,1.83-4.09,1.72c0,0-11.53-3.45-14.98-3.45l-2.05-2.16Z"/>
    <path id="path1318-9" class="cls-3" d="m88.76,97.46l2.44-5.18,3.73-1.52-1.37,4.5-4.8,2.21Z"/>
    <path id="path1320-6" class="cls-3" d="m85.18,94.26l3.43-3.05.46-4.88-2.97,2.13-.91,5.79Z"/>
    <path id="path1322-6" class="cls-3" d="m79.39,91.13l3.43-3.5.3-3.81-1.3.3-2.36,2.9-.08,4.11Z"/>
    <path id="path872-04" class="cls-10" d="m140.73,189.34s-2.9,5.79-3.05,13.87c0,0,.88,5.6-2.24,12.12,0,0-1.35,6.47-.59,10.83,0,0-.32,8.51-1.94,12.5,0,0-2.16,6.73-2.48,11.58,0,0,4.53,4.96-1.02,8.14,0,0-1.02,3.61-.54,7.17,0,0,.59,1.62,4.53,4.63,0,0,4.09,3.83,7,5.06,0,0,1.89.86,2.53.92,0,0,2.69,1.62,3.07,2.69,0,0,3.34-.97,3.12,1.94,0,0-.65,2.96-4.9,3.18,0,0-7.87.48-11.1-.7,0,0-3.18-2.05-14.22-2.86,0,0-8.08-1.35-3.83-7.43,0,0,.11-3.12,1.67-3.72,0,0-.27-2.69.81-3.29,0,0-.59-3.45.32-5.82,0,0-2.86-1.24-2.59-4.63,0,0-.48-3.61,3.02-3.88,0,0-1.24-5.17-.54-12.55,0,0-5.5-13.74-.16-21.82,0,0,1.24-2.42,1.13-5.12,0,0-2.8-10.94-2.32-15.03,0,0-.59-.65-.86.11,0,0,0,7.33-3.66,15.14,0,0,.7,4.69-1.13,6.84,0,0,5.5,12.34-1.56,24.03,0,0-2.42,7.81-2.05,12.66,0,0,6.03,5.12-.92,9.1,0,0,.48,5.44-.54,7.17,0,0,1.08,2.16.11,3.77,0,0,2.53,5.93-1.83,8.19,0,0-3.72,1.02-6.09,3.02,0,0-3.23,4.63-8.62,5.12,0,0-3.56-.27-6.63,1.35,0,0-8.35,0-4.26-4.47l1.02-.65s.65-4.2,7.22-5.82c0,0,4.58-7.33,8.19-10.24,0,0-1.02-1.78.59-2.42,0,0,.97-1.67.43-5.17,0,0-6.68-4.26-.92-9.27,0,0,.32-1.02-.38-6.84,0,0-4.04-19.29-.11-27.21,0,0-2.69-5.93.22-10.02,0,0-3.83-10.67-2.96-18.69,0,0-1.24-2.16-2.42.32,0,0-.27,5.93-1.4,6.03,0,0-12.61.54-12.45-3.5,0,0,1.72-4.63,1.89-8.46,0,0-.92-3.23,1.19-4.96,0,0,.65-1.4-4.36-4.47,0,0-.05-1.4-1.29-1.62,0,0-2.15-.48.92-4.42,0,0,1.24-1.62,1.35-5.76,0,0-.16-2.1,2.26-3.23,0,0-.65-4.96,1.45-6.84,0,0-7.27-6.63,3.77-12.77,0,0-3.07-3.88-.22-5.76,0,0,2.8-2.26,4.2-2.42,0,0,1.89-5.01,6.79-4.53,0,0,1.62-1.78,3.12-1.13,0,0-.75-2.75-4.04-4.58,0,0-5.17-5.12-3.99-10.24l-1.24-4.58s-4.31,10.4-9.59,13.68c0,0-5.33,5.44-7.54,6.36,0,0-4.15,3.39-2.8,4.36,1.35.97,6.2,1.02,6.2,1.02,0,0,3.66-3.99,5.6,1.67,0,0-1.67,5.33-5.76,1.62,0,0-5.5-.32-7.87,2.1,0,0,2.59,2.16,2.21,3.29,0,0,1.24,1.24.65,2.96,0,0,1.89,4.96-2.26,3.23,0,0-.81,3.18-1.51,3.39,0,0,3.99,1.99.32,6.25,0,0,1.08,4.15-2.91,4.85,0,0-4.2-.22-2.69-5.12,0,0-2.16-1.51-.92-4.85,0,0-3.23-.27-2.75-4.9,0,0-1.4-2.48-.48-4.96l-.05-5.44-4.42-.32s-4.36,4.31-6.36-1.13c0,0,.59-5.66,5.87-2.42,0,0,3.77,0,5.17-.65,0,0,.16-3.99,2.48-6.14l.97-90.94,3.88-4.36,3.39,4.31-.27,75.8s2.59-4.63,4.36-5.39c0,0,.22-4.79,3.93-8.19,0,0-.75-2.64.97-3.29,0,0-3.72-8.35,4.26-15.09,0,0,2.05-3.93,5.6-5.33,0,0,.65-4.79,5.44-3.18,0,0-.05-4.42,3.72-4.47,0,0,.65-3.18,2.42-3.77,0,0,3.77-3.77,2.96-6.25,0,0-3.5-3.61-.86-7.7,0,0,.11-2.75-.59-5.44,0,0-1.24-4.96,1.29-7.38,0,0,.16-2.59,1.72-2.69,0,0,.75-2.86,5.82-2.69,0,0,.48-.81,2.96-.27,0,0,6.63-4.63,12.5,1.51,0,0,1.83,3.77,3.93,4.69,0,0,4.26,1.67,2.69,6.57,0,0,2.75,3.99,1.29,6.57,0,0-1.72,3.02-.59,5.17,0,0,6.57,3.88,3.99,8.94,0,0,4.69,3.12,3.61,7.27,0,0,1.19,1.35-.81,3.45,0,0,6.25,1.94,5.71,8.24,0,0,5.76,5.33,4.9,11.48,0,0,8.84,3.02,5.01,10.4,0,0,.54,2.42,3.34,4.26,0,0,6.95,5.06,1.78,13.2,0,0-.48,6.52-4.31,6.79l-2.42,1.4s-.97,4.42-4.2,4.58c0,0-2.37.16-3.56-.43,0,0-3.12.54-4.15-.75,0,0-2.75-1.02-.86,1.13,0,0,5.5,7.49,5.6,13.2,0,0,4.42,28.34,3.56,37.82,0,0-3.48,1.95-6.08,1.43h0Z"/>
    <path id="path875" class="cls-28" d="m106.9,39.78c-1.52-3.35,1.98-5.79,1.98-5.79,1.07-.84-.69-1.68-.69-1.68,0,0-2.06.69-1.22,2.82,0,0-1.37,2.21-.08,4.65Z"/>
    <path id="path877-5" class="cls-28" d="m99.66,43.89c-1.45-3.5,1.83-4.65,1.83-4.65,1.68,1.14,3.28-.08,3.28-.08-.76-3.89,1.07-3.2,1.07-3.2,0,0-1.68,4.88,4.8,3.96,0,0-1.75,1.98-5.1-.15,0,0-2.44,1.52-4.27.76,0,0-1.07.15-.84,3.12,0,.03-.31,4.01,2.02,1.98,0,0,3.69.39,2.32,5.72,0,0-2.51,3.89.3,4.95l1.75-.69s1.45.38,1.45.76c0,0,.46.76-1.52-.08,0,0-3.28,2.06-3.58-1.83,0,0,.15-2.13.91-3.28,0,0,1.3-3.35-1.52-4.72.13.1-2.42,1.44-2.9-2.59h0Z"/>
    <path id="path879-8" class="cls-28" d="m106.52,67.67c6.55,1.98,12.8-6.93,12.8-6.93l-.53.38c-13.64,14.48-16.91-1.68-16.91-1.68,0-1.37-1.07-3.12-1.07-3.12v-5.03c0-1.06.02.19-.08-2.29,0,0-.76-1.45-.23-3.05l-.61-.99s-.53,3.96,0,5.79c0,0-1.75,3.43.15,6.63,0,0,1.75,3.58-1.68,6.25,0,0,2.36-1.45,2.9-3.28,0,0,.91,3.58-2.06,6.4l1.14.23s.15,2.13,2.44.69c0,0-2.44.61-1.83-1.52l1.75-2.59.3,1.07s-.23,1.68-1.07,2.36c0,0,.69-.08,1.6-1.52,0,0,2.21,1.9-1.22,3.58l-.61.76s1.37.61,3.5-2.67l1.3.53Z"/>
    <path id="path883-86" class="cls-28" d="m103.55,59.51s1.83-1.07,2.29-.23c0,0,1.22-.69,2.13.15,0,0,1.22-.69,1.14.46l-.38.84s-1.98-1.6-2.82-.46c0,0-1.6-.61-2.06-.3l-.3-.46Z"/>
    <path id="path885-85" class="cls-28" d="m105.45,61.42l.91.53,1.3-.53s.46,1.75-1.37,1.6c0,0-.99,0-.84-1.6Z"/>
    <path id="path887-3" class="cls-28" d="m121.6,54.48v1.3s-1.45.91-1.68,2.36c0,0,.99-1.6,1.83-1.6.69-.99-.15-2.06-.15-2.06h0Z"/>
    <path id="path889-4" class="cls-28" d="m101.79,34.29s.91.46,2.44-.08c0,0-.38,1.52-2.97,1.45l.53-1.37Z"/>
    <path id="path891-0" class="cls-28" d="m99.96,37.04s.69.38,2.06-.3c0,0-1.22,1.68-2.67,1.83l.61-1.52Z"/>
    <path id="path893-1" class="cls-28" d="m120.31,41.61c-1.45-.3-2.44.3-2.44.3-2.74.46-7.31-2.06-7.31-2.06,0,0,1.68-1.6,3.35-1.07,0,0-.84,1.68,2.44,2.06,0,0,3.58-.38,3.96.76h0Z"/>
    <path id="path895-7" class="cls-28" d="m118.71,42.6s4.27.61,5.64,5.64c-1.52-4.34-6.48-5.33-6.48-5.33l.84-.3Z"/>
    <path id="path897-7" class="cls-28" d="m115.28,37.87c-1.22-1.37-2.36-1.37-2.36-1.37-4.04,1.45-4.57.15-4.57.15,0,0-1.07-.38-.84-1.37l-.61,1.14s.91,1.37,2.9,1.3c0,0,3.5-.91,5.49.15h0Z"/>
    <path id="path899-80" class="cls-28" d="m110.78,33.76s4.65-1.14,6.17,1.83c-3.96-2.67-7.01-.84-7.01-.84,0,0,.69-.69.84-.99Z"/>
    <path id="path901-8" class="cls-28" d="m129.07,44.88c-2.51-.3-5.18-5.49-5.18-5.49,0,0,1.68,5.26,5.1,6.4l.08-.91Z"/>
    <path id="path903-97" class="cls-28" d="m123.13,35.59c-2.44-2.29-5.1-2.21-5.1-2.21,0,0,3.73,1.45,6.32,4.11l-1.22-1.9Z"/>
    <path id="path905-8" class="cls-28" d="m132.12,72.01c.76-3.5-4.57-5.41-4.57-5.41-2.29-1.98-1.9-3.96-1.9-3.96,1.6.46,1.37-.08,1.37-.08-3.5-2.21-2.67-3.96-2.67-3.96,1.14-4.27,0-7.7,0-7.7-1.75-.84-3.89-4.88-3.89-4.88,0,0,1.9,4.27,3.58,5.49,0,0-1.37.23-3.66-3.43,0,0,.91,4.27,3.2,4.65,0,0,1.6,7.24-2.74,6.32,0,0-2.06,6.25,1.68,11.58,0,0,4.34,1.98,3.81,4.65l2.36-.08s.38-1.52-.84-1.83l-.84.3s0-1.3-3.2-3.73c0,0-1.68-1.45-1.07-2.29,0,0,6.63,1.45,7.77,4.04l.15,8.46.84-7.16.69,1.6s-.76,3.5.69,5.87c0,0-.61-4.11.08-4.5l.53-1.14s-1.52-1.14-1.37-2.82h0Z"/>
    <path id="path907-3" class="cls-28" d="m121.76,45.49s.76,2.51,2.36,3.43c-2.36-.3-2.36-3.43-2.36-3.43Z"/>
    <path id="path909-97" class="cls-28" d="m119.85,42.07s3.12-.61,3.66,2.36c-.69-1.6-3.66-2.36-3.66-2.36Z"/>
    <path id="path911-25" class="cls-28" d="m109.64,35.89s2.59-2.29,6.1.53c-2.36-1.68-6.1-.53-6.1-.53Z"/>
    <path id="path913-0" class="cls-28" d="m107.43,38.26s2.9.76,5.1-.23c-4.04,2.51-5.1.23-5.1.23Z"/>
    <path id="path915-2" class="cls-28" d="m125.57,57.38s3.12,2.59,2.51,5.26l1.37,1.52-.84-1.83s0-3.28-3.05-4.95h0Z"/>
    <path id="path917-4" class="cls-28" d="m133.18,66.14c-2.44-1.07-1.83-3.81-1.83-3.81,0-2.51-2.13-3.2-2.13-3.2-3.58-3.2-1.6-7.16-1.6-7.16.46-1.37-2.13-4.72-2.13-4.72,0,0,4.27,3.43,2.9,5.18,0,0-1.75,2.9.99,6.1,0,0,3.05.76,2.67,5.26,0,0,.38.84,1.6,1.37l-.46.99Z"/>
    <path id="path919-8" class="cls-28" d="m129.91,64.92s5.03,2.29,3.43,7.09c.15-5.1-3.96-6.7-3.96-6.7l.53-.38Z"/>
    <path id="path921-0" class="cls-28" d="m132.8,74.14c5.1-.91.53-7.92.53-7.92l1.37.84s3.43,6.55-1.52,8.08l-.38-.99Z"/>
    <path id="path923-6" class="cls-28" d="m108.04,73c-2.44-3.66-.91-5.41-.91-5.41l-1.14-.46s-.53,1.45,0,2.97c0,0-2.51-.76-9.22,3.96l1.3-.08s4.65-3.58,7.77-2.97l2.21,1.98Z"/>
    <path id="path925-2" class="cls-28" d="m97.22,64.31s-.61,1.52.38,3.73c-.99-1.22-1.37-2.82-1.37-2.82l.99-.91Z"/>
    <path id="path927-65" class="cls-28" d="m97.37,73.91c-3.43-.23-2.67-6.32-2.67-6.32l-.84,2.13s-3.05,1.07-1.52,2.97l.91-.08s-2.06-1.52.99-2.21c0,0-1.07.99.23,2.9l-.69.76-3.28-1.68.15,1.07s3.5.99,3.58,2.13c0,0,1.9-1.6,3.12-1.68h0Z"/>
    <path id="path929-6" class="cls-28" d="m101.34,78.56c8.3,1.14,12.95,4.5,12.95,4.5,7.16,3.81,10.51-3.35,10.51-3.35l-.08,1.45c-1.14,8.53-10.51,4.34-10.51,4.34,12.95,5.71,11.5-6.78,11.5-6.78l.99-1.3.08,7.85c-1.98,1.75-2.74,4.34-2.74,4.34.15-.99,3.81-4.27,3.81-4.27.69-.99-.3-10.51-.3-10.51l-.99-.15c-4.95,11.43-10.36,8.61-10.36,8.61-6.02-3.89-14.93-5.49-14.93-5.49-.3-3.96-3.96-4.04-3.96-4.04,0,0,4.04,1.6,3.35,4.88l.69-.08Z"/>
    <path id="path931-6" class="cls-28" d="m94.78,79.09c-.99-2.29.46-4.8.46-4.8l-.61.53c-1.52,1.9-.23,4.27-.23,4.27-1.68,1.14-2.82-.46-2.82-.46-3.43-3.73-6.63-2.82-6.63-2.82l-.91.99s3.5-1.22,6.55,1.98c0,0,1.75,2.9,4.57.99l-.38-.69Z"/>
    <path id="path934-34" class="cls-9" d="m101.22,78.11s-1.62,4.85-6.9,1.51"/>
    <path id="path936-1" class="cls-9" d="m100.58,78.97s17.46,11.64,22.95,13.68c0,0,6.9,7,12.39,6.25"/>
    <path id="path938-7" class="cls-9" d="m128.38,92.77s-.54,3.02,4.09,4.42"/>
    <path id="path942-1" class="cls-9" d="m130.32,84.9s-.11,5.28-4.53,5.5"/>
    <path id="path944-3" class="cls-9" d="m135.17,81.56s1.62,2.26.97,6.03c0,0,.54,9.91-4.2,7.43"/>
    <path id="path946-08" class="cls-9" d="m136.57,76.5s5.06,5.71-.43,12.5"/>
    <path id="path948-2" class="cls-9" d="m100.04,79.73s6.68,7.87,11.85,9.91"/>
    <path id="path950-90" class="cls-9" d="m99.07,80.27s6.03,8.62,9.7,10.45l6.47,8.08s11.74,4.96,17.13,11.64"/>
    <path id="path952-1" class="cls-9" d="m96.81,80.48s.75,5.39,5.6,8.94l6.47,13.9s-12.39-7.65-10.78-17.78"/>
    <path id="path954-0" class="cls-9" d="m97.99,80.59s2.37,6.03,6.47,8.3l9.16,13.15s19.93,22.95,27.69,1.62c0,0-1.94,8.51-8.73,10.56"/>
    <path id="path956-81" class="cls-9" d="m140.34,99.12s.32,4.31-2.37,5.71"/>
    <path id="path958-6" class="cls-9" d="m141.85,84.47s-1.72,14.33-4.09,16.49"/>
    <path id="path960-7" class="cls-9" d="m105.64,91.91s7.76,21.33,14.44,22.95"/>
    <path id="path962-8" class="cls-9" d="m74.72,96.11s11.64-.43,14.87,9.81"/>
    <path id="path964-8" class="cls-9" d="m73.96,99.77s10.56-4.09,13.9,8.08"/>
    <path id="path966-2" class="cls-9" d="m87,110.11s1.94-5.28,5.39-7.76c0,0-.32-3.56,3.23-3.34,0,0,3.56-2.05,2.69-6.57"/>
    <path id="path968-1" class="cls-8" d="m88.73,97.83l2.37-5.28,3.88-2.05-1.29,4.74-4.96,2.59Z"/>
    <path id="path970-3" class="cls-8" d="m85.06,94.38l3.66-3.45.32-4.74-3.12,2.59-.86,5.6Z"/>
    <path id="path972-8" class="cls-8" d="m79.14,91.26l3.56-3.77.54-4.2-3.77,3.45-.32,4.53Z"/>
    <path id="path974-9" class="cls-9" d="m73.21,100.74s-1.51,3.66.43,6.03"/>
    <path id="path976-35" class="cls-9" d="m70.95,104.73s-.97,3.56-.11,5.71"/>
    <path id="path978-4" class="cls-9" d="m75.04,113.67s3.99,7.11-.11,12.39"/>
    <path id="path980-1" class="cls-9" d="m75.69,110.98s5.39,7.22,1.94,12.71"/>
    <path id="path982-2" class="cls-9" d="m78.49,107.85s5.82,5.82,3.66,11.21"/>
    <path id="path984-2" class="cls-9" d="m65.88,112.05l-.22,21.77"/>
    <path id="path986-77" class="cls-9" d="m69.11,135.01l-6.47-2.16-8.08,2.48"/>
    <path id="path988-9" class="cls-9" d="m58.02,125.63l-.11,8.84"/>
    <path id="path990-1" class="cls-9" d="m54.89,139.21l8.3,2.05,7.54-2.48"/>
    <path id="path992-4" class="cls-9" d="m58.12,139.96s-2.48,8.19.54,14.55"/>
    <path id="path994-0" class="cls-9" d="m67.28,143.63s2.05,2.8-5.5.65"/>
    <path id="path996-4" class="cls-9" d="m61.14,148.15s6.47,1.62,5.5-2.48"/>
    <path id="path998-7" class="cls-9" d="m61.14,152.25s1.94-2.16,5.39-1.94"/>
    <path id="path1000-8" class="cls-9" d="m65.88,148.47s1.19.65.75,1.62"/>
    <path id="path1002-7" class="cls-9" d="m58.23,154.4s4.09,1.51,6.57-.97"/>
    <path id="path1004-68" class="cls-9" d="m59.2,159.46s2.15,2.16,5.82.22"/>
    <path id="path1006-0" class="cls-9" d="m60.06,156.12s-.54,3.34,2.8,2.37"/>
    <path id="path1008-8" class="cls-9" d="m63.83,155.37s1.29,2.69-.97,3.12"/>
    <path id="path1010-6" class="cls-9" d="m145.19,94.6s1.83,11.96-6.57,17.67"/>
    <path id="path1012-1" class="cls-9" d="m147.13,96l1.51,5.93"/>
    <path id="path1014-45" class="cls-9" d="m142.6,109.36s-1.83,7.87-7.54,8.73"/>
    <path id="path1016-2" class="cls-9" d="m105,101.82l3.02,22.84-4.2-5.93-1.94-8.3,3.02,5.71"/>
    <path id="path1018-59" class="cls-9" d="m104.78,111.3c-.32-.65-5.5-16.05-5.5-16.05"/>
    <path id="path1020-3" class="cls-9" d="m96.05,99.66l1.72,11.31"/>
    <path id="path1022-8" class="cls-9" d="m92.71,103.97l1.83,17.35,5.5,4.85,3.45-1.94.65-.54-6.25-5.28,2.8,3.34"/>
    <path id="path1024-8" class="cls-9" d="m90.56,104.84l2.69,16.92"/>
    <path id="path1026-4" class="cls-9" d="m88.73,113.89l1.83,5.71"/>
    <path id="path1028-3" class="cls-9" d="m106.61,104.08s9.7,18.32,31.46,17.89l7-5.39s5.82-3.02,7-9.91"/>
    <path id="path1030-5" class="cls-9" d="m111.35,112.38s-.32,9.59,4.53,10.24c0,0,.86.54,2.8-2.48,0,0,1.29-.22,2.37,1.29l1.83.32"/>
    <path id="path1032-0" class="cls-9" d="m94.76,126.39l2.8,3.99s1.94-2.16,5.82-3.12c0,0,3.34-.97,4.53.43l4.74-1.94s3.77,2.26,6.79-.43c0,0,3.02,3.34,9.48,0l6.9.65,2.16-3.45"/>
    <path id="path1034-5" class="cls-9" d="m102.19,131.23s3.12-2.16,7.76-2.05"/>
    <path id="path1036-93" class="cls-9" d="m112.65,128.22s11.96-2.69,24.03,1.19"/>
    <path id="path1038-4" class="cls-9" d="m137.64,131.67s-20.9-4.2-34.48,2.91"/>
    <path id="path1040-6" class="cls-9" d="m102.95,132.85s4.31-2.69,10.67-2.91"/>
    <path id="path1042-2" class="cls-9" d="m104.13,136.51s10.99-4.85,32-1.94"/>
    <path id="path1044-5" class="cls-9" d="m136.78,135.65l5.6-12.07-2.91,1.29-2.48,2.69-1.29-.43"/>
    <path id="path1046-3" class="cls-9" d="m138.61,135.33l5.82-5.93"/>
    <path id="path1048-2" class="cls-9" d="m142.17,136.3l4.53-4.31"/>
    <path id="path1050-0" class="cls-9" d="m145.4,136.84l2.16-2.05"/>
    <path id="path1052-00" class="cls-9" d="m146.16,124.12s3.99,4.85,3.99,8.19"/>
    <path id="path1054-9" class="cls-9" d="m142.92,120.03s8.19,3.23,7.65,12.18"/>
    <path id="path1056-80" class="cls-9" d="m144.97,118.52s7.65,3.23,6.79,12.93"/>
    <path id="path1058-96" class="cls-9" d="m146.26,117.44s8.94,3.45,6.47,13.47"/>
    <path id="path1060-7" class="cls-9" d="m96.81,135.22s-1.62-6.47,5.28-3.88l1.51,5.17s-1.83,3.56-4.96,1.83c0,0-1.29-1.62.86-2.26"/>
    <path id="path1062-21" class="cls-9" d="m94.44,129.73s-3.23,2.26-1.4,4.96c0,0-4.74,4.09,2.48,4.96l2.48-1.4"/>
    <path id="path1064-4" class="cls-9" d="m103.49,136.94s3.56,5.82,6.25,7.22c0,0,6.47,5.17-1.94,11.31"/>
    <path id="path1078-9" class="cls-9" d="m95.51,140.61s-1.29,8.08,1.72,14.76"/>
    <path id="path1080-6" class="cls-9" d="m96.81,141.15s1.08,11.85,6.47,14.12l1.62-.32-3.45-4.42"/>
    <path id="path1082-8" class="cls-9" d="m98.85,139.53l4.96,10.34,1.83-.11.11-1.51"/>
    <path id="path1084-0" class="cls-9" d="m100.25,146.32l-2.26-6.03"/>
    <path id="path1086-9" class="cls-9" d="m78.6,155.69s4.96,7.54,14.22,2.48c0,0,1.51,5.71,7.65.97,0,0,4.63,3.45,7.33-2.59,0,0-3.23-1.94-.86-4.85"/>
    <path id="path1088-36" class="cls-9" d="m116.31,134.79l-1.08,47.09"/>
    <path id="path1090-3" class="cls-9" d="m117.6,143.19l-.54,31.89"/>
    <path id="path1092-8" class="cls-9" d="m123.21,135.33l.22,6.9"/>
    <path id="path1094-9" class="cls-9" d="m128.81,135.87l.65,51.94s-6.9,2.8-12.71,1.29"/>
    <path id="path1096-5" class="cls-9" d="m118.14,177.46v10.88"/>
    <path id="path1098-0" class="cls-9" d="m116.85,180.37l-.22,7.11"/>
    <path id="path1100-17" class="cls-9" d="m86.68,187.37s12.71,1.51,26.72.86"/>
    <path id="path1102-19" class="cls-9" d="m77.09,186.19s14.87,6.25,36.53,2.91"/>
    <path id="path1104-82" class="cls-9" d="m85.06,199.01l.75-8.3,2.8.43"/>
    <path id="path1106-67" class="cls-9" d="m84.09,189.42l-.54,7.54"/>
    <path id="path1108-59" class="cls-9" d="m82.37,188.99l-.32,8.3"/>
    <path id="path1110-3" class="cls-9" d="m80.86,189.53l-.54,7.54"/>
    <path id="path1112-99" class="cls-9" d="m79.24,188.77l-.43,7.76"/>
    <path id="path1114-7" class="cls-9" d="m90.34,159.79s.86,17.35-3.99,26.4"/>
    <path id="path1116-9" class="cls-9" d="m92.17,160.43s0,13.15-3.99,25.75"/>
    <path id="path1118-7" class="cls-9" d="m83.77,160.76s-.11,10.78-4.42,19.5"/>
    <path id="path1120-3" class="cls-9" d="m79.24,168.3s-.32,6.25-1.83,9.91"/>
    <path id="path1122-50" class="cls-9" d="m76.66,166.04s-.54,7.76-1.51,10.67"/>
    <path id="path1124-41" class="cls-9" d="m76.87,164.74l2.48,2.69"/>
    <path id="path1126-94" class="cls-9" d="m77.95,163.45s1.08,3.02,3.12,3.34"/>
    <path id="path1128-1" class="cls-9" d="m100.47,161.19l-2.37,25.43-5.6-.11"/>
    <path id="path1130-4" class="cls-9" d="m101.66,162.05l-1.72,24.89,2.05.32"/>
    <path id="path1132-3" class="cls-9" d="m102.19,171.1s5.17-4.96,6.25,3.12c0,0-3.02,4.74-4.96-.65"/>
    <path id="path1134-6" class="cls-9" d="m105.53,177.24l-.11,1.51s2.15,1.51,1.94,4.09c0,0,4.42-.43,2.37,3.77"/>
    <path id="path1136-4" class="cls-9" d="m96.16,165.07s-5.39,3.88,2.37,7.87l-1.51,12.93"/>
    <path id="path1138-2" class="cls-9" d="m91.42,175.3s3.45-3.23,5.82.75"/>
    <path id="path1140-2" class="cls-9" d="m91.63,178.11l1.51.75s1.83-2.69,2.48.97c0,0-2.15,3.77-4.96,2.05"/>
    <path id="path1142-7" class="cls-9" d="m89.91,184.46s2.37,1.29,4.53-.54l1.62.75"/>
    <path id="path1146-6" class="cls-9" d="m93.57,163.45s3.88-3.56,5.93,2.05"/>
    <path id="path1148-1" class="cls-9" d="m91.42,191.14s12.71,2.48,22.3-.22"/>
    <path id="path1150-8" class="cls-9" d="m115.23,182.85l-.22,7.97"/>
    <path id="path1152-5" class="cls-9" d="m116.96,191.04s9.37,1.83,13.47-1.51l11.1-.43"/>
    <path id="path1154-1" class="cls-9" d="m130.86,188.23s10.78.43,14.22-1.19"/>
    <path id="path1158-1" class="cls-9" d="m131.61,186.83s7.33,1.19,13.9-1.19"/>
    <path id="path1160-30" class="cls-9" d="m131.18,144.16s1.62,29.42.86,33.73"/>
    <path id="path1162-64" class="cls-9" d="m133.23,135.33s2.59,7.76,2.69,10.56"/>
    <path id="path1164-47" class="cls-9" d="m138.94,142.98s2.05,6.36,2.05,10.02"/>
    <path id="path1166-5" class="cls-9" d="m137.54,153.65l-.32,7.22"/>
    <path id="path1168-3" class="cls-9" d="m143.89,158.28s-2.8-1.62-1.83,2.59c0,0-7.76,0-5.06,8.84,0,0-5.82.32-2.37,4.42"/>
    <path id="path1170-8" class="cls-9" d="m135.6,172.18s3.88.97,0,5.6"/>
    <path id="path1172-2" class="cls-9" d="m138.83,174.01s1.08.11-.22-6.36c0,0-.22-4.63,3.34-3.56,0,0,2.37,1.51-.75,3.02"/>
    <path id="path1174-7" class="cls-9" d="m135.06,181.12s-.65,1.83.86,3.88"/>
    <path id="path1176-35" class="cls-9" d="m133.44,182.09s-.97,1.4,1.19,3.02"/>
    <path id="path1178-3" class="cls-9" d="m133.55,179.72s-4.09-4.31-2.69,2.69c0,0,2.26,1.72,1.94,3.66"/>
    <path id="path1180-74" class="cls-9" d="m140.55,176.92s-8.94,4.31-.65,9.16c0,0,4.74.54,3.34-5.28,0,0-6.25-2.37-2.69,2.48l1.51-.97"/>
    <path id="path1182-8" class="cls-9" d="m141.85,169.49s1.19,3.56-1.08,5.06"/>
    <path id="path1184-0" class="cls-9" d="m145.51,168.19l-1.83,1.29s1.08,3.45-1.08,5.28"/>
    <path id="path1186-01" class="cls-9" d="m144.65,180.91s1.94,2.05-.43,3.77"/>
    <path id="path1188-6" class="cls-9" d="m96.81,204.07s-1.51,2.8.75,6.14c0,0-3.34,4.96,2.16,8.19"/>
    <path id="path1190-4" class="cls-9" d="m107.69,211.29s1.29,5.17-2.59,6.68c0,0,3.02-.11-.54,4.09"/>
    <path id="path1192-5" class="cls-9" d="m94.44,209.25l-1.08-12.71s4.42-5.5,21.87-.97l3.77.32,6.36-.75s8.62-3.23,13.47-1.4"/>
    <path id="path1194-8" class="cls-9" d="m119.11,197.61s1.72,5.6,1.51,8.4c0,0-2.16,5.28,2.69,8.84"/>
    <path id="path1196-3" class="cls-9" d="m122.02,219.05s-1.08-2.69-.22-4.2"/>
    <path id="path1198-12" class="cls-9" d="m120.3,217.54s-5.93,8.94-.43,20.47c0,0-1.29,11.53,1.4,14.55"/>
    <path id="path1200-29" class="cls-9" d="m96.91,225.08s-2.8,6.47,0,23.27"/>
    <path id="path1202-55" class="cls-9" d="m109.09,225.3s1.83,8.3-1.72,15.52"/>
    <path id="path1204-4" class="cls-9" d="m118.14,251.48s4.96,3.56,12.39-1.19"/>
    <path id="path1206-6" class="cls-9" d="m95.08,255.15s6.03,7.87,12.39,1.08"/>
    <path id="path1208-3" class="cls-9" d="m92.5,260.64s11.1,6.03,16.92-1.08"/>
    <path id="path1210-1" class="cls-9" d="m115.56,255.36s3.45,3.99,10.24,2.69"/>
    <path id="path1212-2" class="cls-9" d="m117.06,259.67s6.68,2.26,12.82-1.62"/>
    <path id="path1214-0" class="cls-9" d="m126.98,260.53l-.22,2.37"/>
    <path id="path1216-65" class="cls-9" d="m119.33,268.19s-2.59-2.69-1.29-7.65"/>
    <path id="path1218-1" class="cls-9" d="m95.08,263.88s6.25,3.66,12.61,0"/>
    <path id="path1220-9" class="cls-9" d="m95.19,270.02s7.87,4.53,10.67,3.34"/>
    <path id="path1222-4" class="cls-9" d="m94.44,272.39s9.7,4.74,11.64,3.12"/>
    <path id="path1224-4" class="cls-9" d="m87.76,280.68l-1.72,4.85s2.48.22,6.03,2.48c0,0,6.14-6.03,10.99-9.16,0,0,1.19-.97,1.19-1.72"/>
    <path id="path1226-6" class="cls-9" d="m87.97,284.13s3.45-7.33,7.65-9.91"/>
    <path id="path1228-81" class="cls-9" d="m82.91,288.87l1.83.65"/>
    <path id="path1230-0" class="cls-9" d="m79.67,290.38l2.8,1.4"/>
    <path id="path1232-8" class="cls-9" d="m89.8,282.3s3.23-1.4,9.05-1.08"/>
    <path id="path1234-1" class="cls-9" d="m89.16,284.02s2.48-2.05,8.4-1.62"/>
    <path id="path1236-2" class="cls-9" d="m93.68,277.34s-1.29,1.19-.32,3.23"/>
    <path id="path1238-98" class="cls-9" d="m91.74,279.18v1.62"/>
    <path id="path1240-8" class="cls-9" d="m89.37,284.78l3.02,1.51,3.34-3.02"/>
    <path id="path1242-6" class="cls-9" d="m115.23,272.71l1.72,2.37s10.02,1.62,15.09,3.66c0,0,3.12-.11,5.93-2.91"/>
    <path id="path1244-82" class="cls-9" d="m140.66,277.02s-1.62,2.16-3.56,2.59"/>
    <path id="path1246-0" class="cls-9" d="m116.63,272.5s.11,2.37,4.96-.86c0,0,4.53-3.66,6.03-3.99"/>
    <path id="path1248-2" class="cls-9" d="m118.46,270.12s-2.91,2.26,6.57-3.77l1.83-.97"/>
    <path id="path1250-4" class="cls-9" d="m126.01,275.73l7.43-3.34"/>
    <path id="path1252-9" class="cls-9" d="m128.7,276.37l5.82-2.69"/>
    <path id="path1254-8" class="cls-9" d="m131.72,276.48l.11-1.29"/>
    <path id="path1256-15" class="cls-9" d="m130.42,272.93v-3.56"/>
    <path id="path1260-64" class="cls-6" d="m63.93,35.28l-1.22,97.52"/>
    <path id="path11394" class="cls-11" d="m106.85,48.2l.95-2.32s2.11-.74,6.76.84"/>
  </g>
  <path id="path14259" class="cls-25" d="m79.19,181.16c1.44-.13,6.2-19.11,4.78-21.06,0,0,3.14.75,5.9-.67,0,0,1.42,18.97-4.85,28.67l-7.24-1.94c.05-1.4.06-2.81,1.27-3.43l.15-1.57Z"/>
  <path id="path14261" class="cls-25" d="m83.3,143.14s2.32-3.48,5.91-4.75l2.96-4.59s-.32-2.01.58-2.75c0,0-3.8-.69-5.7,4.38l-1.27.32s-3.33,2.06-3.48,2.43c0,0-1.85.95,1,4.96Z"/>
  <path id="path14263" class="cls-24" d="m96.5,135.48c-.9-3.06.79-4.65.79-4.65,0-.95-1.64-1.06-1.64-1.06-4.44,1.48-2.27,4.75-2.27,4.75l.16.26s-3.48,2.64-.48,3.85l2.22.63,2.53-1.37s-.26-1.95,1.58-2.16c0,0,.69-.05.42.63,0,0-1.37.21-1.21,1.21,0,0,1.16,1.69,3.33.26l1.32-1.43-1.48-4.86s-3.96-1.69-4.59,1c0,0-.32,1.32-.11,2.11,0,0,.63,1.58-.58.79h0Z"/>
  <path id="path13753" class="cls-5" d="m108.46,49.21l-.3-1.49s5.82.45,6.57,1.94l-.67.9"/>
  <ellipse id="path13755" class="cls-28" cx="111.15" cy="48.73" rx=".9" ry=".86"/>
  <path id="path13757" class="cls-2" d="m101.07,48.84s1.42-1.49,2.76-.75l.75.67"/>
  <ellipse id="path13759" class="cls-28" cx="102.53" cy="48.58" rx=".71" ry=".78"/>
  <path id="path14266" class="cls-18" d="m92.05,157.95c3.17-1.06,2.43-18.48,2.43-18.48,0,0-4.59.21-3.54-3.82l-2.24,2.69s-4.93,3.29-5.68,5.23c0,0-7.84,3.43-5.75,9.48l2.31,2.99s4.76,6.45,12.46,1.92h0Z"/>
  <path id="path1066-48" class="cls-4" d="m92.24,134.29l-3.12,4.74s-6.03,1.94-8.3,10.34l-2.91,1.72,2.91-3.88"/>
  <path id="path1068-4" class="cls-4" d="m94.07,139.68s-5.17,4.53-5.82,13.15l-1.51,2.16"/>
  <path id="path1070-98" class="cls-4" d="m87.28,150.46l-2.05,3.23"/>
  <path id="path1072-4" class="cls-4" d="m86.1,149.49l-2.69,4.42"/>
  <path id="path1074-4" class="cls-4" d="m84.91,149.59l-2.37,3.02"/>
  <path id="path1076-1" class="cls-4" d="m88.04,140.97s-4.09,1.83-6.57,10.45"/>
  <path id="path13836" class="cls-28" d="m106.22,66.68c-1.37-2.01-.53-4.96-.53-4.96.95-.21-.32-2.53-.32-2.53,1.16-.63.21-2.53.21-2.53l-1.8-.32-.21-1.06.11-2.11.63-1.9c1.8-4.54-1.53-5.49-1.53-5.49,1.05-.75.6-5.38.6-5.38l2.24-1.49s-1.21-5.7,2.39-6.54l-4.33.32-1.8,1.27-1.16,1.9c-1.2.33-1.69.48-1.69,2.43l-1.37,2.32v3.48l.53,3.38,1.51,1.81c1.49,4.34-.36,7.61-.14,10.54,0,0-1.37,2.22-1.58,2.85-1.41,6.63-2.53,9.65,4.54,8.34,0,0,2.32-.53,2.75-.32.42.21,1.06.32,1.06.32l-.11-4.33Z"/>
  <path id="path13838" class="cls-28" d="m96.29,80.41c.42,6.97-1.9,10.14-1.9,10.14l-.42,4.86-4.44,1.69-3.8,2.53c0,10.14-6.97,8.24-6.97,8.24-.42,2.75-3.17,2.53-3.17,2.53-.84,13.31-9.93,17.32-9.93,17.32l-.11,5.91,1.27.11,1.06-2.64,2.53-.84,4.12-3.48,2.96-3.17,1.58-1.37,2.11-2.01,1.48-2.43,1.37-1.58,2.32-4.44,1.16-2.53,1.58-3.48,2.01-2.85,1.06-.74,1.27-2.53,2.11-.74s4.12-2.22,3.06-6.65c-.21-.95-.53-6.34-.53-6.34l.42-.95-1.37-2.96-.85-1.58Z"/>
  <path id="path13840" class="cls-28" d="m137.9,121.81c-6.97-1.69-5.7-9.29-5.7-9.29,2.53-3.17-8.24-20.06-8.24-20.06-9.93-4.44-3.8-9.5-3.8-9.5l-1.37.95-2.43-.53-2.11-1.06-1.9-1.16-2.85-.84-4.33-1.27-4.33-1.06s.42,3.06-4.22,2.85l1.69,4.44s-1.16,3.38.63,7.29c0,0,2.32,9.82,8.24,11.51,0,0,8.13,18.37,30.73,17.74h0Z"/>
  <path id="path13861" class="cls-28" d="m115.48,187.95c-4.03-21.36,7.47-54.51,7.47-54.51,0,0-13.59.3-19.56,3.14l2.3,3.29,2.43,3.38,2.64,2.22.84,3.17-.95,4.75-3.48,2.43.74,1.16-1.58,2.01-2.32,1.58-3.48-1.48-1.69,1.16-2.32.95-1.9-.63-1.27-1.58-.74-.95-.21,4.96,1.27.21,1.69-.63,1.9.21,2.11,1.58.11,1.27s.74,1.27-1.69,2.75c0,0,2.64,4.54,4.65,2.53,0,0,5.7-4.12,5.81,3.17,0,0,0,2.32-2.32,2.22l-.84,2.22s2.53,1.48,2.53,4.12c0,0,5.17-.11,1.16,5.6,1.37-.21,8.03.95,8.03.95l-1.29-1.23Z"/>
  <path id="path14903" class="cls-13" d="m80.66,99.42s-4.86,4.22-4.65,9.08c0,0-4.65,3.17-4.65,8.45,0,0,2.32,7.39,9.5,3.38l3.38-4.86,3.8-7.39s-3.38-8.45-7.39-8.66h0Z"/>
  <path id="path14905" class="cls-13" d="m152.2,118.68c-.24-4.13,1.96-9.12,1.96-9.12,0,0,8.45,5.91,2.75,14.36-1.81,14.25-.35-3.8-4.71-5.24Z"/>
  <path id="path14907" class="cls-13" d="m121.42,121.38l-1.9-1.69-3.17,3.8-4.01-3.8-4.44,3.38-1.27-10.35-1.9-1.9s-3.17-8.87-3.8-10.14c-.63-1.27-1.69,15.63-1.69,15.63l-6.12-11.62,1.27,15.84,6.97,7.39s3.8-1.9,6.34-.42l5.1-1.46s4.33,1.64,6.42-.6c4.93.22,3.96-3.66,3.96-3.66l-1.75-.41Z"/>
  <path id="path14909" class="cls-13" d="m142.12,146.73c-.63-2.75-3.8-3.59-3.8-3.59.84,2.96-2.11,8.03-2.11,8.03l-2.75-9.29-1.69,2.32-1.9-3.38-1.27-6.76-5.28.21s2.11,46.04-2.96,54.91c0,0,7.18.84,12.46-3.38l-.84-1.8-1.16-1.8-.11-3.17,1.48-1.06.11-2.22,2.22-1.69-.74-1.69v-1.27l1.48-1.06,1.37-.11.42-.53-.53-2.75.32-2.43,1.27-1.9,2.11-1.16.74-.53h.84l.21-2.22,2.32-.21-2.22-11.51Z"/>
  <path id="path14911" class="cls-13" d="m109.66,196.02l1.79.6-2.69,13.44s1.49-13.44.9-14.04Z"/>
  <path id="path14913" class="cls-13" d="m134.15,202.88s0,8.51-1.94,11.05c1.34-1.94-.45-13.74-.45-13.74l2.39,2.69Z"/>
  <path id="path14915" class="cls-13" d="m137.29,101.33c-17.03-3.14-31.66-17.47-31.66-17.47l-.45-1.94s15.23,10.3,17.77,10.6c0,0,9.26,8.51,14.34,8.81Z"/>
</svg>